<mxfile host="app.diagrams.net" agent="Mozilla/5.0 (Windows NT 10.0; Win64; x64) AppleWebKit/537.36 (KHTML, like Gecko) Chrome/128.0.0.0 Safari/537.36 OPR/114.0.0.0" version="26.0.5">
  <diagram id="C5RBs43oDa-KdzZeNtuy" name="Page-1">
    <mxGraphModel dx="753" dy="429" grid="1" gridSize="10" guides="1" tooltips="1" connect="1" arrows="1" fold="1" page="1" pageScale="1" pageWidth="827" pageHeight="1169" math="0" shadow="0">
      <root>
        <mxCell id="WIyWlLk6GJQsqaUBKTNV-0" />
        <mxCell id="WIyWlLk6GJQsqaUBKTNV-1" parent="WIyWlLk6GJQsqaUBKTNV-0" />
        <mxCell id="hak3TevOIR2K7441Awrj-57" style="edgeStyle=orthogonalEdgeStyle;rounded=0;orthogonalLoop=1;jettySize=auto;html=1;exitX=0.5;exitY=0;exitDx=0;exitDy=0;entryX=0.5;entryY=1;entryDx=0;entryDy=0;" edge="1" parent="WIyWlLk6GJQsqaUBKTNV-1" source="hak3TevOIR2K7441Awrj-55" target="hak3TevOIR2K7441Awrj-56">
          <mxGeometry relative="1" as="geometry" />
        </mxCell>
        <mxCell id="hak3TevOIR2K7441Awrj-55" value="User" style="shape=datastore;whiteSpace=wrap;html=1;" vertex="1" parent="WIyWlLk6GJQsqaUBKTNV-1">
          <mxGeometry x="170" y="160" width="60" height="60" as="geometry" />
        </mxCell>
        <mxCell id="hak3TevOIR2K7441Awrj-59" style="edgeStyle=orthogonalEdgeStyle;rounded=0;orthogonalLoop=1;jettySize=auto;html=1;exitX=0.5;exitY=0;exitDx=0;exitDy=0;entryX=0;entryY=0.7;entryDx=0;entryDy=0;" edge="1" parent="WIyWlLk6GJQsqaUBKTNV-1" source="hak3TevOIR2K7441Awrj-56" target="hak3TevOIR2K7441Awrj-58">
          <mxGeometry relative="1" as="geometry" />
        </mxCell>
        <mxCell id="hak3TevOIR2K7441Awrj-56" value="OnSubmit" style="html=1;whiteSpace=wrap;" vertex="1" parent="WIyWlLk6GJQsqaUBKTNV-1">
          <mxGeometry x="145" y="80" width="110" height="50" as="geometry" />
        </mxCell>
        <mxCell id="hak3TevOIR2K7441Awrj-60" style="edgeStyle=orthogonalEdgeStyle;rounded=0;orthogonalLoop=1;jettySize=auto;html=1;exitX=0.5;exitY=1;exitDx=0;exitDy=0;" edge="1" parent="WIyWlLk6GJQsqaUBKTNV-1" source="hak3TevOIR2K7441Awrj-58">
          <mxGeometry relative="1" as="geometry">
            <mxPoint x="340" y="90" as="targetPoint" />
          </mxGeometry>
        </mxCell>
        <mxCell id="hak3TevOIR2K7441Awrj-66" style="edgeStyle=orthogonalEdgeStyle;rounded=0;orthogonalLoop=1;jettySize=auto;html=1;exitX=1;exitY=0.3;exitDx=0;exitDy=0;entryX=0.5;entryY=0;entryDx=0;entryDy=0;" edge="1" parent="WIyWlLk6GJQsqaUBKTNV-1" source="hak3TevOIR2K7441Awrj-58" target="hak3TevOIR2K7441Awrj-61">
          <mxGeometry relative="1" as="geometry" />
        </mxCell>
        <mxCell id="hak3TevOIR2K7441Awrj-58" value="RiotApi" style="shape=datastore;whiteSpace=wrap;html=1;" vertex="1" parent="WIyWlLk6GJQsqaUBKTNV-1">
          <mxGeometry x="310" width="60" height="60" as="geometry" />
        </mxCell>
        <mxCell id="hak3TevOIR2K7441Awrj-63" value="" style="edgeStyle=orthogonalEdgeStyle;rounded=0;orthogonalLoop=1;jettySize=auto;html=1;" edge="1" parent="WIyWlLk6GJQsqaUBKTNV-1" source="hak3TevOIR2K7441Awrj-61" target="hak3TevOIR2K7441Awrj-62">
          <mxGeometry relative="1" as="geometry" />
        </mxCell>
        <mxCell id="hak3TevOIR2K7441Awrj-61" value="MatchData" style="shape=datastore;whiteSpace=wrap;html=1;" vertex="1" parent="WIyWlLk6GJQsqaUBKTNV-1">
          <mxGeometry x="450" y="90" width="60" height="60" as="geometry" />
        </mxCell>
        <mxCell id="hak3TevOIR2K7441Awrj-62" value="FrontEnd" style="ellipse;whiteSpace=wrap;html=1;" vertex="1" parent="WIyWlLk6GJQsqaUBKTNV-1">
          <mxGeometry x="580" y="80" width="80" height="80" as="geometry" />
        </mxCell>
        <mxCell id="hak3TevOIR2K7441Awrj-65" style="edgeStyle=orthogonalEdgeStyle;rounded=0;orthogonalLoop=1;jettySize=auto;html=1;exitX=0.85;exitY=0.05;exitDx=0;exitDy=0;exitPerimeter=0;entryX=1;entryY=0.7;entryDx=0;entryDy=0;" edge="1" parent="WIyWlLk6GJQsqaUBKTNV-1" source="hak3TevOIR2K7441Awrj-64" target="hak3TevOIR2K7441Awrj-58">
          <mxGeometry relative="1" as="geometry" />
        </mxCell>
        <mxCell id="hak3TevOIR2K7441Awrj-64" value="PuuidMatch" style="shape=datastore;whiteSpace=wrap;html=1;" vertex="1" parent="WIyWlLk6GJQsqaUBKTNV-1">
          <mxGeometry x="310" y="90" width="60" height="60" as="geometry" />
        </mxCell>
        <mxCell id="hak3TevOIR2K7441Awrj-67" value="1" style="text;html=1;align=center;verticalAlign=middle;whiteSpace=wrap;rounded=0;" vertex="1" parent="WIyWlLk6GJQsqaUBKTNV-1">
          <mxGeometry x="145" y="130" width="60" height="30" as="geometry" />
        </mxCell>
        <mxCell id="hak3TevOIR2K7441Awrj-68" value="2" style="text;html=1;align=center;verticalAlign=middle;whiteSpace=wrap;rounded=0;" vertex="1" parent="WIyWlLk6GJQsqaUBKTNV-1">
          <mxGeometry x="205" y="15" width="60" height="30" as="geometry" />
        </mxCell>
        <mxCell id="hak3TevOIR2K7441Awrj-69" value="3" style="text;html=1;align=center;verticalAlign=middle;whiteSpace=wrap;rounded=0;" vertex="1" parent="WIyWlLk6GJQsqaUBKTNV-1">
          <mxGeometry x="280" y="60" width="60" height="30" as="geometry" />
        </mxCell>
        <mxCell id="hak3TevOIR2K7441Awrj-70" value="4" style="text;html=1;align=center;verticalAlign=middle;whiteSpace=wrap;rounded=0;" vertex="1" parent="WIyWlLk6GJQsqaUBKTNV-1">
          <mxGeometry x="370" y="40" width="60" height="30" as="geometry" />
        </mxCell>
        <mxCell id="hak3TevOIR2K7441Awrj-71" value="5" style="text;html=1;align=center;verticalAlign=middle;whiteSpace=wrap;rounded=0;" vertex="1" parent="WIyWlLk6GJQsqaUBKTNV-1">
          <mxGeometry x="460" y="20" width="60" height="30" as="geometry" />
        </mxCell>
        <mxCell id="hak3TevOIR2K7441Awrj-73" value="6" style="text;html=1;align=center;verticalAlign=middle;whiteSpace=wrap;rounded=0;" vertex="1" parent="WIyWlLk6GJQsqaUBKTNV-1">
          <mxGeometry x="510" y="120" width="60" height="30" as="geometry" />
        </mxCell>
      </root>
    </mxGraphModel>
  </diagram>
</mxfile>
